<svg width="98" height="20" viewBox="0 0 98 20" fill="none" xmlns="http://www.w3.org/2000/svg">
<rect width="98" height="19" transform="translate(0 0.500366)" fill="white"/>
<path d="M62.4025 13.3352C61.1946 15.0556 59.167 16.2458 57.0667 16.2242C54.1045 16.2458 52.123 13.859 52.604 10.9291C53.1692 7.96963 56.0004 5.58278 59.007 5.54027C61.1623 5.58278 62.8188 6.88689 63.2748 8.71633H61.0435C60.5568 7.99209 59.6901 7.51087 58.6181 7.46515C56.7296 7.51087 54.9235 9.03474 54.5427 10.9291C54.2565 12.7931 55.5201 14.3161 57.4548 14.2985C58.3626 14.3153 59.2883 13.9352 59.9779 13.3352H62.4025ZM17.6798 5.63652H19.9111L21.2685 12.469L25.3431 5.63652H27.6714L21.6574 15.9354H19.9111L17.6798 5.63652ZM28.2535 5.63652H30.3886L28.6416 15.9354H26.6051L28.2535 5.63652ZM36.9856 13.3352H33.2012L31.4558 15.9354H29.1275L35.6266 5.63652H37.5669L39.702 15.9354H37.4699L36.9856 13.3352ZM39.9922 5.63652L39.7982 7.5614H41.7393L40.2841 15.9354H42.4176L43.7766 7.5614H45.716L46.1049 5.63652H39.9922ZM46.59 5.63652H52.3146L51.9258 7.5614H48.3362L47.9474 10.0629H51.5377L51.245 11.9878H47.5601L47.2683 14.009H50.9564L50.5668 15.9354H44.8429L46.59 5.63652ZM69.9696 13.3352H66.1876L64.5376 15.9354H62.1122L68.613 5.63652H70.5517L72.6868 15.9354H70.4554L69.9696 13.3352ZM6.32915 15.9354H4L11.4709 4.00037H13.3134L15.8365 15.9354H13.6052L12.9253 12.5661H8.46265L6.32915 15.9354ZM94.1261 11.7969H91.6029L94.0283 14.106C92.797 15.8103 90.5657 16.9556 88.015 16.9933C85.4635 16.9556 83.2338 15.8103 81.9993 14.106L84.4247 11.7969H81.9015L81.2224 12.3736C81.1011 12.0007 81.0405 11.5635 81.03 11.1216C81.0413 8.16453 83.651 5.72474 87.044 5.34778V7.5614H88.9843V5.34778C92.3774 5.72474 94.9895 8.16453 94.9984 11.1216C94.9887 11.5635 94.9272 12.0007 94.8044 12.3736L94.1261 11.7969Z" fill="black"/>
</svg>
