<svg width="96" height="16" viewBox="0 0 96 16" fill="none" xmlns="http://www.w3.org/2000/svg">
<path fill-rule="evenodd" clip-rule="evenodd" d="M20.5155 10.0646C20.9932 8.33146 21.0394 7.3035 20.9157 6.48456C20.6212 4.27384 18.9833 3.11891 16.295 3.11891C12.9109 3.11891 10.3139 5.07374 9.21685 8.35783L0.149834 8.36076L0 8.95214C0.535708 9.72567 2.22699 10.1017 4.96505 10.1017L8.79865 10.1046C8.18289 14.0914 10.2713 15.9838 14.0382 15.9838C16.1292 15.9838 17.2863 15.6156 19.1977 14.9783L19.5313 13.3614C18.1612 13.7579 16.8748 14.0099 15.9194 14.0099C12.7272 14.0099 11.6886 12.6127 12.1591 10.0641H20.5155V10.0646ZM15.9168 4.74655C17.5013 4.74655 18.2459 5.83604 17.6743 8.36418H12.5219C13.0525 6.00549 14.4564 4.74655 15.9168 4.74655ZM60.9937 14.9788C59.0823 15.616 57.9268 15.9842 55.8342 15.9842C51.9657 15.9842 49.8681 13.9899 50.647 9.77988C51.4136 5.64461 54.244 3.11989 58.0925 3.11989C60.7813 3.11989 62.4192 4.27432 62.7127 6.48553C62.8369 7.30448 62.7918 8.33244 62.313 10.0656H53.9577C53.4856 12.6142 54.5242 14.0114 57.7148 14.0114C58.6718 14.0114 59.9598 13.7594 61.3288 13.3628L60.9937 14.9788ZM59.4703 8.36418C60.0414 5.83604 59.2979 4.74655 57.7143 4.74655C56.0785 4.74655 54.85 6.00549 54.32 8.36418H59.4703ZM73.4962 3.07887C77.7043 3.07887 78.8096 4.26211 78.1733 7.69613L76.6812 15.7523H73.3366L74.7708 8.00916C75.1418 6.01135 75.0345 4.80808 72.4909 4.80808C71.672 4.80808 70.9126 5.04102 70.1208 5.24173L68.1848 15.7528H64.8894L67.0153 4.41692C68.1909 3.88854 70.8074 3.07887 73.4962 3.07887ZM34.5501 5.42632C33.3986 5.08106 32.0322 4.84275 30.9505 4.84275C28.9862 4.84275 28.4572 5.55134 28.3653 6.39812C28.2971 6.94164 28.4531 7.31669 29.565 7.83823L31.636 8.80613C32.9968 9.44878 34.0529 10.6823 33.8799 12.0604C33.5967 14.572 32.1645 16.0004 27.7265 16.0004C26.3718 16.0004 24.8617 15.8314 22.6532 15.2639L23.0488 13.6036C24.8232 14.006 25.9269 14.2492 27.2082 14.2492C29.2002 14.2492 29.8647 13.7057 29.9719 12.7602C30.0304 12.2777 30.0012 11.8465 28.8892 11.3001L26.8793 10.2213C25.0587 9.35063 24.3917 8.46429 24.5815 6.94359C24.854 4.51605 27.0815 3.115 30.637 3.115C31.849 3.115 32.807 3.25955 34.957 3.76596L34.5501 5.42632ZM48.009 5.42632C46.858 5.08106 45.4926 4.84275 44.4119 4.84275C42.4451 4.84275 41.9176 5.55134 41.8247 6.39812C41.7596 6.94164 41.915 7.31669 43.027 7.83823L45.0959 8.80613C46.4563 9.44878 47.5123 10.6823 47.3399 12.0604C47.0576 14.572 45.6265 16.0004 41.1874 16.0004C39.8317 16.0004 38.3226 15.8314 36.1151 15.2639L36.5087 13.6036C38.2841 14.006 39.3863 14.2492 40.6692 14.2492C42.6627 14.2492 43.3241 13.7057 43.4314 12.7602C43.4898 12.2777 43.4621 11.8465 42.3486 11.3001L40.3397 10.2213C38.5202 9.35063 37.8521 8.46429 38.0414 6.94359C38.3149 4.51605 40.5419 3.115 44.0964 3.115C45.3084 3.115 46.2674 3.25955 48.419 3.76596L48.009 5.42632ZM96 3.3499L95.8194 3.94176C94.8532 4.7153 92.9561 5.08937 90.216 5.08937L86.1202 5.09523L84.8964 11.6556C84.6429 13.0264 84.7081 13.7979 86.7005 13.7979C87.2286 13.7979 87.7761 13.714 88.5735 13.5386L88.2266 15.3108C86.2023 15.7923 85.4203 15.9354 84.6419 15.9354C81.7494 15.9354 80.8806 14.9265 81.3886 12.185L83.6515 0.000366211L87.0638 0.00720295L86.4327 3.34648L96 3.3499Z" fill="white"/>
</svg>
