<svg width="89" height="24" viewBox="0 0 89 24" fill="none" xmlns="http://www.w3.org/2000/svg">
<rect width="89" height="22.8715" transform="translate(0 0.564575)" fill="white"/>
<g clip-path="url(#clip0_125_2160)">
<path d="M19.0434 5.98401L14.668 14.2376H16.7562L17.6512 12.5471H20.7339L21.5791 10.8069H18.4965L19.8389 8.27116L20.1372 7.52535L20.4853 8.27116L23.4188 14.2376H25.6065L21.43 5.98401H19.0434Z" fill="#323232"/>
<path d="M33.1141 12.2987L30.28 5.98413H27.6945V14.2378H29.5839V8.71877L32.1197 14.2378H34.0588L36.6442 8.71877V14.2378H38.5833V5.98413H36.0476L33.1141 12.2987Z" fill="#323232"/>
<path d="M53.8474 11.5528L49.0742 5.98413H46.8865V14.2378H48.8256V8.56961L53.6982 14.2378H55.7865V5.98413H53.8474V11.5528Z" fill="#323232"/>
<path d="M79.2048 5.98413L76.321 12.2987L73.487 5.98413H70.9015V14.2378H72.7909V8.71877L75.3266 14.2378H77.2657L79.8512 8.71877V14.2378H81.7406V5.98413H79.2048Z" fill="#323232"/>
<path d="M62.1009 5.98413L57.7255 14.2378H59.8138L60.7087 12.5473H63.7914L64.6864 10.807H61.6037L62.8964 8.27128L63.2445 7.52547L63.5428 8.27128L66.5261 14.2378H68.664L64.4875 5.98413H62.1009Z" fill="#323232"/>
<path d="M43.7544 5.98413H41.7158V14.2875H43.7544V5.98413Z" fill="#323232"/>
<path d="M7.80624 5.93433H5.81741V14.2874H13.2755V12.5969H7.80624V5.93433Z" fill="#323232"/>
<path d="M6.96102 18.0662C6.11577 18.0662 5.81744 17.7679 5.81744 17.4198H6.31465C6.31465 17.569 6.51353 17.7181 6.96102 17.7181C7.40851 17.7181 7.50795 17.6187 7.50795 17.5193C7.50795 17.3701 7.40851 17.3204 7.01074 17.2707C6.9113 17.2707 6.71242 17.2209 6.61297 17.2209C6.01633 17.1712 5.81744 16.9723 5.81744 16.674C5.81744 16.326 6.16549 16.1271 6.86158 16.1271C7.60739 16.1271 7.90571 16.4254 7.90571 16.7237H7.45823C7.45823 16.5746 7.25934 16.4751 6.86158 16.4751C6.41409 16.4751 6.31465 16.5248 6.31465 16.674C6.31465 16.7734 6.41409 16.8232 6.86158 16.8729C6.96102 16.8729 7.20962 16.9226 7.25934 16.9226C7.75655 16.9723 7.95543 17.1712 7.95543 17.4695C8.00515 17.8673 7.65711 18.0662 6.96102 18.0662Z" fill="#323232"/>
<path d="M10.2425 18.0662C9.59613 18.0662 9.19836 17.8176 9.19836 17.2707V16.1271H9.64585V17.2707C9.64585 17.5193 9.84473 17.6684 10.2425 17.6684C10.5905 17.6684 10.8391 17.5193 10.8391 17.2707V16.1271H11.2866V17.3204C11.3364 17.8176 10.9386 18.0662 10.2425 18.0662Z" fill="#323232"/>
<path d="M14.5682 17.2706C14.4687 17.4198 14.2699 17.5192 13.9715 17.5192C13.9218 17.5192 13.1263 17.5192 13.1263 17.5192V18.0661H12.6788V16.1768H14.0213C14.3196 16.1768 14.5185 16.2265 14.6179 16.3756C14.7173 16.4751 14.7671 16.6242 14.7671 16.8728C14.7174 17.022 14.6676 17.1712 14.5682 17.2706ZM14.2201 16.6242C14.1704 16.5745 14.071 16.5248 13.8721 16.5248H13.0766V17.1215H13.8224C14.0213 17.1215 14.1207 17.0717 14.1704 17.022C14.2201 16.9723 14.2201 16.9226 14.2201 16.8728C14.2201 16.7237 14.2201 16.674 14.2201 16.6242Z" fill="#323232"/>
<path d="M15.9102 18.0663V16.1769H17.7499V16.5249H16.3577V16.9227H17.7499V17.2707H16.3577V17.6685H17.7996V18.0663H15.9102Z" fill="#323232"/>
<path d="M20.982 17.022C20.9323 17.1215 20.8329 17.2209 20.6837 17.2209L21.2306 18.0165H20.7334L20.2362 17.2707H19.4904V18.0165H19.0429V16.1271H20.3854C20.6837 16.1271 20.8826 16.2265 20.982 16.326C21.0318 16.4254 21.0815 16.5248 21.0815 16.674C21.0815 16.8232 21.0318 16.9723 20.982 17.022ZM20.5843 16.6243C20.5346 16.5746 20.4848 16.5248 20.3357 16.5248H19.4904V16.9226H20.3854C20.4848 16.9226 20.5843 16.8729 20.5843 16.8232C20.5843 16.7734 20.634 16.7237 20.634 16.674C20.634 16.674 20.634 16.6243 20.5843 16.6243Z" fill="#323232"/>
<path d="M22.8713 16.1769H22.4239V18.0663H22.8713V16.1769Z" fill="#323232"/>
<path d="M26.2532 16.4253C26.4023 16.5745 26.4521 16.7734 26.4521 17.0717C26.4521 17.37 26.3526 17.5689 26.2532 17.7181C26.0543 17.9169 25.756 18.0661 25.2588 18.0661C24.8113 18.0661 24.5129 17.9667 24.3141 17.7181C24.1649 17.5689 24.0655 17.3203 24.0655 17.0717C24.0655 16.8231 24.1152 16.6242 24.2643 16.4253C24.4632 16.1767 24.7615 16.0773 25.2588 16.0773C25.756 16.127 26.0543 16.2264 26.2532 16.4253ZM25.9051 17.5192C26.0046 17.4197 26.0543 17.2706 26.0543 17.1214C26.0543 16.9722 26.0046 16.7734 25.9051 16.7236C25.756 16.6242 25.6068 16.5248 25.3085 16.5248C25.0102 16.5248 24.8113 16.6242 24.7118 16.7236C24.6124 16.8231 24.5627 16.9722 24.5627 17.1214C24.5627 17.3203 24.6124 17.4694 24.7118 17.5689C24.861 17.6683 25.0102 17.7181 25.2588 17.7181C25.6068 17.7181 25.756 17.6186 25.9051 17.5192Z" fill="#323232"/>
<path d="M29.6337 17.022C29.5839 17.1215 29.4845 17.2209 29.3353 17.2209L29.8823 18.0165H29.3851L28.8878 17.2707H28.142V18.0165H27.6945V16.1271H29.037C29.3353 16.1271 29.5342 16.2265 29.6337 16.326C29.6834 16.4254 29.7331 16.5248 29.7331 16.674C29.7331 16.8232 29.6834 16.9723 29.6337 17.022ZM29.2359 16.6243C29.1862 16.5746 29.1364 16.5248 28.9873 16.5248H28.142V16.9226H29.037C29.1364 16.9226 29.2359 16.8729 29.2359 16.8232C29.2359 16.7734 29.2856 16.7237 29.2856 16.674C29.2856 16.674 29.2856 16.6243 29.2359 16.6243Z" fill="#323232"/>
<path d="M34.4066 18.0663L33.3128 16.7238V18.0663H32.8653V16.1769H33.3625L34.4563 17.4199V16.1769H34.9038V18.0663H34.4066Z" fill="#323232"/>
<path d="M36.4455 18.0663H35.9483L36.9427 16.1769H37.4896L38.4343 18.0663H37.9371L37.7879 17.6188H36.6444L36.4455 18.0663ZM37.3405 16.6741L37.241 16.5249L37.1416 16.6741L36.8432 17.2707H37.5891L37.3405 16.6741Z" fill="#323232"/>
<path d="M40.4227 16.5249V18.0663H39.9752V16.5249H39.1299V16.1769H41.2679V16.5249H40.4227Z" fill="#323232"/>
<path d="M43.4063 18.0662C42.7599 18.0662 42.3621 17.8176 42.3621 17.2707V16.1271H42.8096V17.2707C42.8096 17.5193 43.0085 17.6684 43.4063 17.6684C43.7543 17.6684 44.0029 17.5193 44.0029 17.2707V16.1271H44.4504V17.3204C44.4504 17.8176 44.0526 18.0662 43.4063 18.0662Z" fill="#323232"/>
<path d="M47.7322 17.022C47.6824 17.1215 47.583 17.2209 47.4338 17.2209L47.9808 18.0165H47.4836L46.9864 17.2707H46.2405V18.0165H45.7931V16.1271H47.1355C47.4338 16.1271 47.6327 16.2265 47.7322 16.326C47.7819 16.4254 47.8316 16.5248 47.8316 16.674C47.8316 16.8232 47.7819 16.9723 47.7322 17.022ZM47.3344 16.6243C47.2847 16.5746 47.235 16.5248 47.0858 16.5248H46.2405V16.9226H47.1355C47.235 16.9226 47.3344 16.8729 47.3344 16.8232C47.3344 16.7734 47.3841 16.7237 47.3841 16.674C47.3841 16.674 47.3841 16.6243 47.3344 16.6243Z" fill="#323232"/>
<path d="M49.423 18.0663H48.9258L49.9202 16.1769H50.4672L51.4118 18.0663H50.9146L50.7158 17.6685H49.5722L49.423 18.0663ZM50.2683 16.6741L50.2185 16.5249L50.1191 16.6741L49.8208 17.2707H50.5666L50.2683 16.6741Z" fill="#323232"/>
<path d="M52.5549 18.0661V16.1768H53.0024V17.6684H54.2454V18.0661H52.5549Z" fill="#323232"/>
<path d="M58.2228 18.0662C57.3776 18.0662 57.0793 17.7679 57.0793 17.4198H57.5765C57.5765 17.569 57.7753 17.7181 58.2228 17.7181C58.6703 17.7181 58.7698 17.6187 58.7698 17.5193C58.7698 17.3701 58.6703 17.3204 58.2725 17.2707C58.1731 17.2707 57.9742 17.2209 57.8748 17.2209C57.2781 17.1712 57.0793 16.9723 57.0793 16.674C57.0793 16.326 57.4273 16.1271 58.1234 16.1271C58.8692 16.1271 59.1675 16.4254 59.1675 16.7237H58.6703C58.6703 16.5746 58.4714 16.4751 58.0737 16.4751C57.6262 16.4751 57.5267 16.5248 57.5267 16.674C57.5267 16.7734 57.6262 16.8232 58.0737 16.8729C58.1731 16.8729 58.4217 16.9226 58.4714 16.9226C58.9686 16.9723 59.1675 17.1712 59.1675 17.4695C59.267 17.8673 58.9189 18.0662 58.2228 18.0662Z" fill="#323232"/>
<path d="M61.5051 18.0662C60.8587 18.0662 60.461 17.8176 60.461 17.2707V16.1271H60.9085V17.2707C60.9085 17.5193 61.1073 17.6684 61.5051 17.6684C61.8531 17.6684 62.1018 17.5193 62.1018 17.2707V16.1271H62.5492V17.3204C62.599 17.8176 62.2012 18.0662 61.5051 18.0662Z" fill="#323232"/>
<path d="M65.8805 17.022C65.8308 17.1215 65.7314 17.2209 65.5822 17.2209L66.1291 18.0165H65.6319L65.1347 17.2707H64.3889V18.0165H63.9414V16.1271H65.2839C65.5822 16.1271 65.7811 16.2265 65.8805 16.326C65.9303 16.4254 65.98 16.5248 65.98 16.674C65.9303 16.8232 65.9303 16.9723 65.8805 17.022ZM65.4828 16.6243C65.4331 16.5746 65.3833 16.5248 65.2342 16.5248H64.3889V16.9226H65.2839C65.3833 16.9226 65.4828 16.8729 65.4828 16.8232C65.4828 16.7734 65.5325 16.7237 65.5325 16.674C65.4828 16.674 65.4828 16.6243 65.4828 16.6243Z" fill="#323232"/>
<path d="M67.7698 16.5249V16.9227H69.0128V17.3205H67.7698V18.0663H67.3223V16.1769H69.1122V16.5249H67.7698Z" fill="#323232"/>
<path d="M70.3548 18.0661H69.8576L70.852 16.1768H71.3989L72.3436 18.0661H71.8464L71.6475 17.6684H70.6034L70.3548 18.0661ZM71.2498 16.674L71.1503 16.5248L71.0509 16.674L70.7525 17.2706H71.4984L71.2498 16.674Z" fill="#323232"/>
<path d="M75.5255 17.6685C75.3764 17.9171 75.0283 18.116 74.4814 18.116C73.9842 18.116 73.6362 17.9668 73.487 17.7679C73.3876 17.6188 73.2881 17.4199 73.2881 17.1713C73.2881 16.9227 73.3378 16.7238 73.4373 16.5746C73.6362 16.326 73.9345 16.1769 74.4317 16.1769C75.0283 16.1769 75.3267 16.3758 75.4758 16.6741C75.5256 16.7735 75.5753 16.9227 75.5753 16.9724H75.0781C75.0781 16.9227 75.0283 16.8232 74.9786 16.7735C74.8792 16.6741 74.6803 16.5746 74.382 16.5746C74.0837 16.5746 73.8848 16.6741 73.7853 16.8232C73.7356 16.9227 73.6859 17.0221 73.6859 17.1713C73.6859 17.3205 73.7356 17.4696 73.7853 17.5193C73.8848 17.6685 74.1334 17.7679 74.382 17.7679C74.6803 17.7679 74.8295 17.7182 74.9786 17.5691C75.0283 17.5193 75.0283 17.4696 75.0781 17.3702H75.5753C75.625 17.4199 75.625 17.5193 75.5255 17.6685Z" fill="#323232"/>
<path d="M76.8682 18.0663V16.1769H78.7079V16.5249H77.3157V16.9227H78.6581V17.2707H77.3157V17.6685H78.7079V18.0663H76.8682Z" fill="#323232"/>
<path d="M80.9953 18.0662C80.15 18.0662 79.8517 17.7679 79.8517 17.4198H80.3489C80.3489 17.569 80.5478 17.7181 80.9953 17.7181C81.4428 17.7181 81.5422 17.6187 81.5422 17.5193C81.5422 17.3701 81.4428 17.3204 81.045 17.2707C80.9456 17.2707 80.7467 17.2209 80.6472 17.2209C80.0506 17.1712 79.8517 16.9723 79.8517 16.674C79.8517 16.326 80.1998 16.1271 80.8958 16.1271C81.6417 16.1271 81.94 16.4254 81.94 16.7237H81.4428C81.4428 16.5746 81.2439 16.4751 80.8461 16.4751C80.3986 16.4751 80.2992 16.5248 80.2992 16.674C80.2992 16.7734 80.3986 16.8232 80.8461 16.8729C80.9456 16.8729 81.1942 16.9226 81.2439 16.9226C81.7411 16.9723 81.94 17.1712 81.94 17.4695C82.0394 17.8673 81.6914 18.0662 80.9953 18.0662Z" fill="#323232"/>
</g>
<defs>
<clipPath id="clip0_125_2160">
<rect width="79.0559" height="12.9274" fill="white" transform="translate(4.97168 5.53674)"/>
</clipPath>
</defs>
</svg>
