<svg width="72" height="26" viewBox="0 0 72 26" fill="none" xmlns="http://www.w3.org/2000/svg">
<path d="M54.8876 0.0504992C54.4146 0.113963 53.5004 0.46301 52.9792 0.772394C52.8429 0.859656 52.6665 0.954851 52.6023 0.986583C52.442 1.05798 51.3274 1.89093 51.0788 2.12892C49.7477 3.39025 48.9138 5.10376 48.9138 6.56342C48.9138 7.43604 49.1222 8.0786 49.6595 8.85603C50.4533 10.0142 51.9689 10.7996 53.8051 11.0138C54.6872 11.1169 56.5315 11.0376 57.0527 10.871C59.1055 10.2205 60.5408 9.26854 61.495 7.90408C62.1285 6.99973 62.5455 5.77013 62.5455 4.81818C62.5455 4.16768 62.2969 3.2078 61.9601 2.56523C61.6634 2.002 60.7894 1.11351 60.2842 0.859656C60.0918 0.764461 59.8833 0.6534 59.8191 0.621669C59.6988 0.550273 59.354 0.423346 58.6564 0.177426C58.1994 0.0267005 55.7376 -0.0605615 54.8876 0.0504992ZM57.3734 2.35898C57.9508 2.63663 58.1512 2.89048 58.2956 3.57271C58.6083 5.09583 57.4697 7.17425 55.7296 8.23726C55.6173 8.30866 55.3046 8.41972 55.04 8.49112C54.5749 8.61804 54.5188 8.61804 54.158 8.49905C53.4042 8.2452 53.1556 7.82475 53.1556 6.77761C53.1476 5.96845 53.2919 5.41315 53.741 4.58019C54.3023 3.51718 55.3287 2.6049 56.2508 2.32724C56.7881 2.16859 56.9966 2.17652 57.3734 2.35898ZM45.1049 0.447145C44.7922 0.526474 44.4714 0.629602 44.3832 0.669266C44.295 0.716864 44.0464 0.835857 43.8219 0.938985C43.004 1.3277 42.0418 2.51763 41.8493 3.39025C41.8173 3.54098 41.729 3.84243 41.6649 4.06455C41.6007 4.27874 41.4725 4.74678 41.3762 5.09583C41.28 5.44488 41.1677 5.83359 41.1277 5.96845C41.0956 6.09538 41.0074 6.40476 40.9512 6.64275C40.7508 7.38051 40.4862 7.99134 40.2376 8.27693C39.7805 8.79257 38.9065 9.02262 37.391 9.02262C36.7735 9.02262 36.4768 9.05435 36.4287 9.11782C36.3245 9.25267 36.1 10.0936 36.0679 10.4505L36.0438 10.7282L38.7942 10.752C41.296 10.7679 41.5847 10.7599 42.122 10.6171C43.1483 10.3474 43.7257 9.97457 44.4875 9.08608C45.1931 8.26899 45.6021 7.28531 46.0591 5.29415C46.4601 3.53305 46.5723 3.25539 47.0294 2.79529C47.5105 2.31931 48.2562 2.04166 49.0421 2.04166C49.4991 2.04166 49.6675 1.92267 49.7557 1.52602C49.7878 1.39116 49.86 1.15317 49.9241 0.986583C49.9883 0.827924 50.0364 0.59787 50.0364 0.494742V0.296419L47.8553 0.304352C46.0431 0.304352 45.57 0.336084 45.1049 0.447145ZM2.57399 0.518541C2.53389 0.589937 2.40559 1.01038 2.29333 1.44669C2.18107 1.883 2.01268 2.52557 1.91646 2.87462C1.82825 3.22366 1.71599 3.63617 1.68392 3.7869C1.65184 3.93762 1.49147 4.56432 1.32308 5.17516C1.1627 5.78599 0.994312 6.41269 0.962238 6.56342C0.849977 7.02353 0.721678 7.53123 0.601399 7.95168C0.537249 8.16587 0.433007 8.57838 0.360839 8.86396C0.288671 9.14955 0.17641 9.53826 0.112261 9.73658C0.0481119 9.93491 0 10.2284 0 10.395V10.6885L2.18107 10.6727L4.36214 10.6489L4.45837 10.4505C4.5145 10.3395 4.61874 10.0222 4.69091 9.73658C4.81921 9.22094 4.93147 8.81636 5.16401 7.99134C5.22816 7.75335 5.34844 7.32498 5.42863 7.04733C5.58098 6.48409 5.74937 6.3413 6.11021 6.47616C6.43096 6.59515 7.68187 8.48318 8.56392 10.165C8.67618 10.3871 8.8125 10.5933 8.85259 10.6251C8.96485 10.6965 13.1506 10.7044 13.1506 10.633C13.1506 10.5537 12.7577 9.90317 12.3567 9.33994C11.2261 7.71369 10.3441 6.74588 9.79879 6.50789C9.65445 6.45236 9.54219 6.35716 9.56625 6.30163C9.58228 6.2461 9.89501 6.15884 10.2719 6.10331C11.5148 5.90499 12.1803 5.65113 12.7817 5.12756C13.7841 4.25494 13.9685 2.77942 13.2228 1.62915C12.9581 1.2325 12.4449 0.772394 12.2525 0.772394C12.1883 0.772394 12.1001 0.732729 12.052 0.685132C11.7954 0.431279 10.9695 0.383681 6.79981 0.375749C2.91077 0.375749 2.64615 0.383681 2.57399 0.518541ZM8.56392 2.11306C9.01296 2.28758 9.35776 2.62076 9.45399 2.96188C9.55021 3.31093 9.38182 3.92969 9.12522 4.15181C8.65212 4.56432 8.54788 4.58812 7.40923 4.58812C6.80783 4.58019 6.28662 4.55639 6.24653 4.53259C6.13427 4.46913 6.19842 4.20734 6.6234 2.83495C6.68755 2.63663 6.73566 2.40657 6.73566 2.31138C6.73566 2.22412 6.77576 2.11306 6.83189 2.05753C6.98424 1.9068 8.15497 1.94646 8.56392 2.11306ZM17.0156 0.478876C16.9675 0.526474 16.9113 0.685132 16.8793 0.812059C16.8552 0.946918 16.783 1.22457 16.7189 1.44669C16.6547 1.66088 16.5505 2.05753 16.4783 2.31931C16.4062 2.5811 16.3019 2.96981 16.2378 3.19193C16.1816 3.40612 16.0694 3.80277 15.9972 4.06455C15.925 4.32634 15.8128 4.69918 15.7566 4.89751C15.7005 5.09583 15.5963 5.48454 15.5161 5.77013C15.4439 6.05571 15.3397 6.44442 15.2755 6.64275C15.2194 6.84107 15.1152 7.22978 15.035 7.51537C14.9628 7.80095 14.8586 8.18966 14.7944 8.38799C14.7383 8.58631 14.626 8.97502 14.5538 9.26061C14.4737 9.54619 14.3614 9.94284 14.2973 10.1491C14.2331 10.3553 14.201 10.5616 14.2331 10.6092C14.2652 10.6647 15.8448 10.6885 18.916 10.6885H23.5588L23.6871 10.4188C23.7593 10.2681 23.8154 10.0777 23.8154 9.99043C23.8154 9.90317 23.8715 9.70485 23.9357 9.55412C24.08 9.20508 24.096 8.78463 23.9597 8.78463H21.7225C19.9023 8.78463 19.5735 8.76877 19.4853 8.66564C19.3811 8.54665 19.3891 8.53871 19.8221 7.11872C19.8622 6.968 19.9504 6.76174 20.0145 6.66655C20.1268 6.49202 20.1428 6.49202 22.372 6.49202C23.6069 6.49202 24.6493 6.47616 24.6894 6.45236C24.7295 6.42856 24.7776 6.30957 24.7937 6.19057C24.8177 6.06364 24.9139 5.6908 25.0102 5.34175C25.1064 5.00063 25.1625 4.69918 25.1385 4.66745C25.1064 4.64365 24.08 4.60399 22.8451 4.58019C21.6183 4.55639 20.6079 4.51673 20.5999 4.47706C20.5919 4.3184 20.7202 3.63617 20.8164 3.35852C20.8806 3.19193 20.9287 2.97774 20.9287 2.88255C20.9367 2.47797 20.9126 2.47797 23.4706 2.4383L25.8521 2.39864L25.9243 2.12099C25.9564 1.97026 26.0366 1.66088 26.1007 1.44669C26.1649 1.22457 26.237 0.899321 26.2691 0.708931L26.3252 0.375749H21.7145C18.1061 0.375749 17.0797 0.399547 17.0156 0.478876ZM28.6586 0.589937C28.6346 0.708931 28.5624 0.970717 28.5063 1.16904C28.4502 1.36736 28.3379 1.75607 28.2657 2.04166C28.1936 2.32724 28.0813 2.73182 28.0252 2.95394C27.961 3.16813 27.8568 3.54891 27.8007 3.7869C27.7365 4.02489 27.6242 4.45326 27.5441 4.73885C27.2233 5.96845 27.1752 6.14297 27.0629 6.48409C26.9988 6.68241 26.9427 6.9204 26.9427 7.02353C26.9427 7.12666 26.9026 7.27738 26.8625 7.36464C26.8144 7.44397 26.7502 7.66609 26.7101 7.84855C26.638 8.1976 26.213 9.80798 26.0766 10.2602C26.0285 10.395 26.0205 10.5457 26.0526 10.6013C26.0927 10.6647 26.7181 10.6885 28.2978 10.6727L30.4869 10.6489L30.6393 10.1729C30.7194 9.91111 30.8397 9.48273 30.9119 9.22094C30.9841 8.95916 31.0883 8.58631 31.1525 8.38799C31.2166 8.18966 31.2727 7.95168 31.2727 7.85648C31.2727 7.50743 31.4171 7.46777 33.2533 7.32498C35.9316 7.12665 35.9316 7.12665 36.4448 7.03146C38.0084 6.73794 39.0348 6.08744 39.5079 5.0641C39.7003 4.65952 39.7244 4.53259 39.7164 3.66791C39.7164 2.58903 39.6201 2.27171 39.0909 1.66881C38.7862 1.31183 37.9442 0.772394 37.6957 0.772394C37.6235 0.772394 37.5273 0.740662 37.4872 0.700998C37.2707 0.486809 36.3245 0.431279 32.5798 0.399547L28.7148 0.367816L28.6586 0.589937ZM34.3679 2.35104C35.5146 2.86668 35.4665 4.50879 34.2877 5.1117C33.967 5.27829 33.0368 5.45281 32.4916 5.45281C31.9704 5.45281 31.9303 5.37348 32.1067 4.75471C32.1788 4.50879 32.2911 4.12008 32.3552 3.90589C32.8845 2.00993 32.7642 2.20032 33.4538 2.20032C33.8547 2.20032 34.1434 2.24792 34.3679 2.35104ZM65.9694 0.431279C65.9454 0.494742 65.8491 0.827924 65.5444 1.96233C65.2878 2.93015 65.1756 3.35059 65.0633 3.7393C64.9992 3.94556 64.9511 4.17561 64.9511 4.23908C64.9511 4.31047 64.8949 4.52466 64.8308 4.73092C64.7666 4.92924 64.6624 5.32588 64.5902 5.61147C64.518 5.89705 64.4058 6.30163 64.3497 6.52375C64.2855 6.73794 64.1813 7.15045 64.1091 7.43604C64.0369 7.72162 63.9247 8.1262 63.8685 8.34832C63.8044 8.56251 63.7001 8.97502 63.628 9.26061C63.5558 9.54619 63.4596 9.88731 63.4195 10.0222C63.3794 10.157 63.3473 10.3633 63.3473 10.4743V10.6885L67.2925 10.6727L71.2377 10.6489L71.3339 10.4505C71.39 10.3395 71.4702 10.0698 71.5263 9.85558C71.5825 9.63345 71.6546 9.34787 71.6867 9.21301C71.7188 9.07022 71.7188 8.91949 71.6867 8.86396C71.6466 8.8005 71.2056 8.7767 70.1391 8.78463C68.8241 8.79257 68.6396 8.7767 68.5755 8.65771C68.4953 8.52285 68.5033 8.47525 68.8 7.39637C68.8962 7.04733 69.0085 6.63481 69.0406 6.48409C69.0726 6.33336 69.217 5.77806 69.3613 5.25449C69.5056 4.73092 69.65 4.15975 69.6981 3.98522C69.7382 3.8107 69.8184 3.48545 69.8825 3.27126C69.9467 3.04914 70.0509 2.64456 70.1311 2.35898C70.2033 2.07339 70.3075 1.66088 70.3717 1.44669C70.4278 1.22457 70.508 0.915186 70.5481 0.756528C70.5882 0.59787 70.6042 0.447145 70.5801 0.423346C70.516 0.35195 66.0095 0.367816 65.9694 0.431279ZM30.7034 15.8529C30.6393 15.8925 31.0402 16.2416 31.1525 16.2416C31.2968 16.2416 32.3713 17.1539 33.7585 18.4548C34.6165 19.264 35.5387 20.1208 35.8033 20.3667C36.5811 21.0965 36.5249 20.8903 36.541 22.8576C36.549 24.5949 36.4608 25.4596 36.2363 25.7293C36.0358 25.9752 36.2683 25.999 38.4574 25.999C40.8951 25.999 40.7668 26.0308 40.5343 25.4675C40.438 25.2454 40.414 24.7774 40.414 23.0877C40.414 21.0092 40.414 20.9934 40.5984 20.8189C40.7027 20.7237 41.288 20.1684 41.8974 19.5813C42.5149 18.9943 43.3248 18.2248 43.7016 17.8678C44.3672 17.2411 45.6181 16.2416 45.7544 16.2416C45.7945 16.2336 45.9388 16.1464 46.0671 16.0432C46.2756 15.8687 46.2836 15.8449 46.1473 15.8449H41.3361L41.1517 16.075C40.863 16.432 38.8183 18.4548 38.6018 18.5897C38.4173 18.7166 38.3933 18.7087 38.0244 18.3835C37.5994 17.9947 36.1721 16.5747 35.7872 16.1384L35.5387 15.8529L33.1571 15.8291C31.8501 15.8132 30.7435 15.8291 30.7034 15.8529ZM47.1497 15.956C47.1497 16.0115 47.2058 16.194 47.2699 16.3447C47.3742 16.5906 47.3902 17.2808 47.3902 20.8744C47.3902 24.936 47.3822 25.1264 47.2298 25.4834C47.1416 25.6897 47.0855 25.888 47.1176 25.9277C47.1657 26.007 51.5038 26.0308 51.576 25.9514C51.6 25.9277 51.5439 25.7293 51.4557 25.4993C51.3194 25.1582 51.2873 24.8646 51.2552 23.8016C51.2311 22.7386 51.2392 22.5006 51.3354 22.4689C51.3995 22.4451 52.2976 22.4134 53.332 22.3975C55.1683 22.3816 55.5532 22.334 56.5315 22.0564C57.5178 21.7629 58.3437 21.1362 58.7286 20.3825C59.322 19.1926 59.0814 17.6854 58.1673 16.8841C57.5498 16.3447 57.0206 16.1384 55.8339 15.956C54.7273 15.7973 47.1497 15.7894 47.1497 15.956ZM54.4787 17.8361C55.473 18.2724 55.6254 19.4465 54.7594 20.0573C54.3504 20.3429 53.7731 20.446 52.5141 20.446C51.5118 20.446 51.3274 20.4301 51.2873 20.3191C51.2231 20.1525 51.2231 17.7885 51.2953 17.725C51.3194 17.6933 51.9689 17.6695 52.7226 17.6695C53.9495 17.6695 54.1499 17.6854 54.4787 17.8361ZM60.3804 15.9401C60.3884 15.9956 60.4366 16.1305 60.5007 16.2416C60.5969 16.4082 60.613 17.1777 60.621 20.8665C60.621 25.1026 60.613 25.301 60.4606 25.5945C60.3804 25.7611 60.3323 25.9197 60.3564 25.9514C60.4366 26.0228 64.8709 26.007 64.8709 25.9356C64.8709 25.8959 64.8067 25.7452 64.7346 25.5945C64.5421 25.2296 64.4459 22.3816 64.6143 22.215C64.7987 22.0405 69.1288 22.0881 70.2835 22.2864C70.4358 22.3102 70.4438 22.2626 70.4679 21.1679L70.4919 20.0335L70.1872 20.089C69.7863 20.1604 64.9911 20.2318 64.7346 20.1763L64.5421 20.1208L64.5662 19.034L64.5902 17.9471L67.7496 17.9233C70.5401 17.9075 70.957 17.9233 71.2617 18.0344C71.5584 18.1455 71.6386 18.1534 71.807 18.0661C71.9273 18.0027 72.0075 17.8916 71.9995 17.7964C71.9995 17.6298 71.9914 17.6298 71.9273 17.7885C71.8792 17.8916 71.8551 17.6219 71.8551 17.0507C71.8471 16.5589 71.807 16.0829 71.7669 15.9956C71.6867 15.8529 71.5344 15.8449 66.0336 15.8449C61.5592 15.8449 60.3804 15.8687 60.3804 15.9401Z" fill="white"/>
</svg>
